<?xml version="1.0" encoding="utf-8"?><svg width='120px' height='120px' xmlns="http://www.w3.org/2000/svg" viewBox="0 0 100 100" preserveAspectRatio="xMidYMid" class="uil-ring"><rect x="0" y="0" width="100" height="100" fill="none" class="bk"></rect><defs><filter id="uil-ring-shadow" x="-100%" y="-100%" width="300%" height="300%"><feOffset result="offOut" in="SourceGraphic" dx="0" dy="0"></feOffset><feGaussianBlur result="blurOut" in="offOut" stdDeviation="0"></feGaussianBlur><feBlend in="SourceGraphic" in2="blurOut" mode="normal"></feBlend></filter></defs>
<!-- <g transform="translate(0.000000,300.000000) scale(0.100000,-0.100000)"
fill="#337ab7" stroke="none"> -->
<path d="M2010 2455 c-69 -41 -120 -75 -114 -75 12 0 232 125 249 141 25 24
-21 2 -135 -66z"/>
<path d="M2635 2347 c-22 -13 -116 -68 -210 -122 -162 -93 -502 -290 -592
-341 l-41 -24 -289 166 c-158 91 -302 174 -319 185 l-31 19 -2 -180 -2 -180
50 27 c44 24 53 26 71 15 19 -11 27 -10 64 12 23 13 47 21 54 17 12 -7 33 -97
25 -105 -3 -3 10 -14 28 -26 32 -20 33 -21 6 -14 -22 5 -26 3 -21 -9 4 -11
-21 -31 -95 -74 -55 -32 -101 -61 -101 -65 0 -14 66 14 164 70 l103 59 58 -32
57 -33 -68 -40 c-38 -22 -107 -62 -154 -89 -82 -48 -85 -51 -97 -99 -17 -65
-96 -446 -96 -461 0 -7 -2 -13 -3 -13 -8 0 -144 76 -194 108 -30 19 -68 41
-85 49 -39 18 -68 36 -77 48 -4 6 -8 -52 -8 -127 l0 -137 45 -26 c24 -15 49
-24 55 -20 5 3 13 -1 16 -10 8 -19 59 -47 69 -37 5 4 6 2 2 -3 -3 -6 37 -35
89 -64 80 -45 99 -52 118 -43 12 5 109 59 215 120 192 111 209 116 199 65 -2
-10 -38 -38 -81 -63 -47 -27 -75 -50 -72 -57 2 -8 -4 -13 -15 -13 -11 0 -42
-13 -68 -30 -27 -16 -54 -30 -60 -30 -24 0 -81 -43 -107 -80 -46 -67 -111 -66
-109 2 1 31 -4 37 -53 66 -30 18 -58 32 -63 32 -11 0 -18 -22 -26 -78 -6 -50
14 -112 37 -112 6 0 9 -6 6 -14 -3 -8 1 -17 9 -20 8 -3 14 -12 14 -20 0 -19
97 -76 129 -76 14 0 70 -26 125 -57 99 -57 100 -57 195 -61 154 -8 186 -7 375
2 l179 8 128 74 c99 57 137 74 166 74 57 -1 234 -27 266 -39 34 -13 40 -14 32
-2 -3 6 14 8 39 7 46 -3 133 -47 142 -71 3 -7 17 -16 32 -20 15 -3 73 -33 130
-66 l103 -60 52 30 c110 62 644 371 690 398 l47 28 -180 109 c-99 59 -180 112
-180 116 0 5 9 14 20 20 11 6 20 14 20 19 0 4 -141 89 -313 189 l-314 181
-130 17 -130 17 -100 -56 c-97 -55 -101 -58 -107 -97 -14 -89 -118 -151 -133
-79 -4 21 -10 28 -20 25 -8 -4 -117 -65 -241 -137 -125 -73 -239 -139 -253
-147 -25 -14 -30 -12 -96 27 -58 34 -72 47 -75 72 -3 16 -2 29 0 29 3 0 33
-16 68 -35 34 -19 69 -35 78 -35 8 0 71 32 138 71 68 39 200 115 293 169 94
53 215 123 270 155 55 32 119 69 143 83 l42 24 0 170 c0 150 -2 169 -15 158
-8 -7 -15 -20 -15 -29 -1 -11 -134 -93 -395 -243 -216 -126 -398 -228 -404
-228 -16 0 -13 62 4 84 8 11 15 16 15 10 0 -5 7 -1 15 10 8 10 21 16 29 13 9
-4 15 -3 15 1 -3 21 2 32 13 26 8 -5 9 -2 4 11 -6 16 -4 16 11 4 15 -12 16
-12 11 3 -9 22 1 29 23 18 12 -7 20 -6 25 2 4 6 3 8 -4 4 -6 -3 -14 -1 -18 6
-4 7 -3 10 1 5 5 -4 16 0 26 9 13 12 19 12 25 3 5 -8 3 -10 -6 -4 -9 6 -11 4
-5 -5 6 -9 4 -11 -5 -5 -9 5 -11 4 -6 -4 11 -17 39 8 33 30 -3 11 1 16 12 14
9 -2 23 -4 31 -4 13 -1 13 -2 0 -11 -9 -6 -10 -10 -3 -10 7 0 17 8 22 18 10
16 10 15 11 -3 1 -13 3 -15 7 -6 3 8 -5 23 -18 33 l-24 19 24 -11 c18 -9 26
-9 35 1 8 9 8 10 -1 5 -6 -3 -15 -1 -19 6 -4 7 -4 10 1 6 4 -4 15 -2 23 5 13
9 14 9 8 0 -4 -8 -2 -13 5 -13 8 0 8 -4 -1 -15 -10 -12 -10 -15 4 -15 9 0 15
3 15 8 -4 23 4 32 27 32 14 0 22 -4 19 -10 -3 -6 1 -7 10 -4 13 5 10 10 -15
25 -35 22 -44 24 -34 7 4 -7 3 -8 -5 -4 -6 4 -9 11 -6 16 3 5 -67 57 -156 115
l-161 107 76 44 c41 24 82 44 89 44 18 0 148 75 162 93 12 17 152 97 169 97
16 0 147 77 160 95 12 15 83 58 129 76 25 10 27 14 27 75 0 35 -1 64 -2 64 -2
0 -21 -11 -43 -23z m31 -75 c-5 -9 -38 -29 -166 -100 -25 -14 -92 -53 -150
-87 -58 -34 -136 -80 -175 -102 -38 -22 -125 -72 -192 -111 -67 -39 -125 -67
-128 -62 -4 7 110 81 175 113 8 4 24 13 35 20 42 25 305 178 449 261 140 80
167 92 152 68z m-562 -690 c-5 -5 -42 -37 -82 -71 -77 -68 -112 -80 -41 -15
23 22 47 44 53 49 31 29 70 55 74 50 3 -3 1 -9 -4 -13z m-784 -421 c0 -16 -28
-33 -35 -21 -3 6 -12 7 -18 3 -9 -5 -9 -3 0 8 13 16 53 23 53 10z m190 -39 c0
-7 -63 -42 -75 -42 -16 0 0 19 28 33 37 18 47 20 47 9z m-485 -82 c26 -29 15
-31 -24 -3 -27 18 -30 23 -14 23 11 0 28 -9 38 -20z m-17 -20 c12 -12 22 -24
23 -28 0 -4 2 -16 4 -27 6 -30 -4 -55 -23 -55 -52 0 -95 89 -57 117 24 17 27
17 53 -7z m-98 -86 c0 -8 -19 -13 -24 -6 -3 5 1 9 9 9 8 0 15 -2 15 -3z"/>
<path d="M1286 1148 c3 -5 10 -6 15 -3 13 9 11 12 -6 12 -8 0 -12 -4 -9 -9z"/>
<path d="M1580 2210 c0 -5 12 -16 28 -25 l27 -16 -32 6 c-31 6 -33 5 -33 -24
0 -35 22 -51 70 -51 27 0 30 -3 25 -20 -8 -24 28 -35 80 -26 47 9 129 58 133
79 5 24 -55 47 -123 47 -42 0 -55 3 -55 15 0 18 3 17 -37 6 -22 -6 -39 -5 -57
4 -14 8 -26 10 -26 5z"/>
<path d="M946 1682 c-16 -54 -87 -434 -83 -439 21 -20 35 21 71 203 21 110 41
203 43 207 3 4 19 -1 36 -11 18 -11 52 -31 77 -44 85 -47 125 -70 145 -84 23
-16 35 -18 35 -4 0 5 -11 12 -25 16 -14 3 -25 9 -25 14 0 4 -17 14 -37 23 -21
9 -47 22 -58 29 -40 25 -65 38 -71 37 -4 0 -10 3 -13 8 -3 4 -25 20 -48 35
-37 25 -42 26 -47 10z"/>
<path d="M2203 1505 c0 -8 4 -12 9 -9 5 3 6 10 3 15 -9 13 -12 11 -12 -6z"/>
<path d="M2072 1460 c0 -14 2 -19 5 -12 2 6 2 18 0 25 -3 6 -5 1 -5 -13z"/>
<path d="M1970 1426 c0 -2 8 -10 18 -17 15 -13 16 -12 3 4 -13 16 -21 21 -21
13z"/>
<path d="M2021 1404 c0 -11 3 -14 6 -6 3 7 2 16 -1 19 -3 4 -6 -2 -5 -13z"/>
<path d="M2416 1151 c-4 -7 -5 -15 -2 -18 9 -9 19 4 14 18 -4 11 -6 11 -12 0z"/>
<path d="M2357 1133 c-4 -3 -7 -11 -7 -17 0 -6 5 -5 12 2 6 6 9 14 7 17 -3 3
-9 2 -12 -2z"/>
<path d="M1170 634 c0 -8 5 -12 10 -9 6 3 10 10 10 16 0 5 -4 9 -10 9 -5 0
-10 -7 -10 -16z"/>
<path d="M2685 416 c17 -7 41 -16 55 -20 20 -5 19 -3 -5 8 -16 7 -41 16 -55
20 -20 5 -19 3 5 -8z"/>
<!-- </g> -->
<animateTransform attributeName="transform" type="rotate" from="0 50 50" to="360 50 50" repeatCount="indefinite" dur="1s"></animateTransform></path>
</svg>
