<?xml version="1.0" standalone="no"?>
<!DOCTYPE svg PUBLIC "-//W3C//DTD SVG 20010904//EN"
 "http://www.w3.org/TR/2001/REC-SVG-20010904/DTD/svg10.dtd">
<svg version="1.0" xmlns="http://www.w3.org/2000/svg"
 width="480.000000pt" height="450.000000pt" viewBox="0 0 480.000000 450.000000"
 preserveAspectRatio="xMidYMid meet">

<g transform="translate(0.000000,450.000000) scale(0.100000,-0.100000)"
fill="#337ab7" stroke="none">
<path d="M1367 3280 c-3 -8 -8 -28 -11 -45 l-5 -30 15 34 c8 18 13 38 11 45
-3 7 -7 5 -10 -4z"/>
<path d="M1402 3278 c-5 -7 -12 -24 -14 -38 -5 -36 29 -40 42 -4 17 43 -3 72
-28 42z m23 -25 c-8 -32 -13 -39 -21 -30 -10 9 5 57 17 57 7 0 9 -10 4 -27z"/>
<path d="M1460 3264 c-14 -35 -12 -54 3 -54 21 0 37 22 37 52 0 36 -27 38 -40
2z m26 -19 c-4 -14 -11 -25 -16 -25 -13 0 -13 16 1 42 14 26 23 16 15 -17z"/>
<path d="M1802 3265 c0 -16 2 -22 5 -12 2 9 2 23 0 30 -3 6 -5 -1 -5 -18z"/>
<path d="M1860 3264 c-15 -37 -12 -54 8 -54 15 0 15 2 2 11 -11 8 -12 12 -2
16 6 2 9 10 6 15 -4 6 1 17 11 25 17 12 17 13 2 13 -10 0 -22 -12 -27 -26z"/>
<path d="M1911 3271 c-17 -31 -14 -61 7 -60 10 0 12 3 5 6 -15 6 -17 32 -3 53
9 13 11 13 21 0 9 -12 10 -12 7 -1 -7 23 -26 24 -37 2z"/>
<path d="M1976 3274 c-3 -8 -2 -12 4 -9 6 3 10 -1 10 -10 0 -11 -5 -15 -14
-12 -14 6 -32 -21 -21 -31 3 -3 5 0 5 6 0 16 27 15 33 0 3 -7 6 6 6 30 1 42
-11 56 -23 26z"/>
<path d="M2027 3277 c-11 -29 -9 -43 4 -30 6 6 9 19 7 29 -3 18 -4 18 -11 1z"/>
<path d="M2124 3248 c-1 -42 -1 -42 9 -13 5 17 14 36 20 43 7 9 4 12 -9 12
-16 0 -20 -8 -20 -42z"/>
<path d="M2161 3249 c-23 -40 -23 -40 -2 -27 18 11 23 11 31 -2 7 -11 10 -3
10 28 0 23 -4 42 -8 42 -5 0 -19 -18 -31 -41z m25 -6 c-10 -10 -19 5 -10 18 6
11 8 11 12 0 2 -7 1 -15 -2 -18z"/>
<path d="M2231 3277 c-19 -23 -18 -61 2 -65 9 -2 17 1 17 7 0 6 -7 8 -16 4
-13 -5 -15 -2 -9 18 4 13 14 30 23 37 9 6 11 12 5 12 -6 0 -16 -6 -22 -13z"/>
<path d="M2280 3271 c-15 -29 -12 -61 5 -61 19 0 40 43 32 64 -9 22 -24 20
-37 -3z m26 -26 c-4 -14 -11 -25 -16 -25 -13 0 -13 16 1 42 14 26 23 16 15
-17z"/>
<path d="M2341 3273 c-7 -13 -5 -23 7 -37 16 -18 16 -19 -7 -13 -17 4 -21 3
-13 -5 6 -6 18 -8 28 -4 16 6 16 8 0 25 -15 17 -15 19 1 32 15 13 16 12 9 -6
-5 -15 -4 -17 5 -8 12 12 5 33 -11 33 -5 0 -13 -8 -19 -17z"/>
<path d="M1826 3255 c-4 -14 -11 -25 -16 -25 -6 0 -10 -4 -10 -10 0 -5 4 -10
9 -10 10 0 36 58 29 66 -3 3 -8 -7 -12 -21z"/>
<path d="M2061 3268 c-1 -9 -6 -18 -12 -20 -6 -2 -9 -13 -7 -23 4 -17 6 -16
17 9 6 16 10 34 7 40 -2 6 -5 4 -5 -6z"/>
<path d="M1537 3242 c-10 -10 -17 -23 -17 -28 0 -4 7 2 16 14 8 12 20 19 26
16 7 -4 8 -2 4 4 -9 15 -10 15 -29 -6z"/>
<path d="M1460 3080 c0 -49 24 -55 34 -9 9 46 8 49 -14 49 -17 0 -20 -7 -20
-40z"/>
<path d="M2430 3103 c0 -10 -3 -28 -6 -40 -5 -19 -2 -23 15 -23 17 0 21 6 21
30 0 17 0 33 1 38 0 4 -7 8 -15 10 -10 2 -16 -4 -16 -15z"/>
<path d="M1813 2963 c15 -2 39 -2 55 0 15 2 2 4 -28 4 -30 0 -43 -2 -27 -4z"/>
<path d="M1311 2785 c-7 -85 -14 -169 -17 -187 -2 -18 -6 -64 -9 -102 -3 -38
-8 -73 -11 -77 -3 -5 59 -10 138 -11 l143 -3 3 -42 c2 -33 9 -47 30 -61 50
-35 56 -37 49 -18 -4 10 -2 27 4 38 9 18 9 20 -4 15 -12 -5 -15 3 -15 39 0 24
4 46 9 50 5 3 6 16 3 29 -3 12 -1 26 5 29 5 4 8 13 4 22 -3 8 3 21 13 29 14
10 15 14 5 15 -12 0 -12 3 1 18 8 9 18 25 21 35 4 9 18 22 32 29 18 8 25 19
25 40 0 19 10 40 29 59 24 24 38 29 78 29 52 0 120 -28 115 -48 -1 -7 4 -11
10 -10 9 2 13 -11 13 -41 0 -40 3 -45 28 -54 17 -5 26 -14 23 -22 -2 -7 0 -17
6 -23 6 -6 12 -23 14 -37 2 -21 -1 -25 -13 -21 -12 5 -13 3 -6 -6 14 -17 14
-69 0 -86 -8 -10 -6 -23 8 -48 18 -33 21 -35 59 -29 58 9 76 34 72 98 -4 51 8
94 36 131 14 18 16 18 41 1 28 -18 58 -16 140 7 39 12 53 33 15 24 l-23 -6 23
11 c27 15 29 29 2 22 -11 -3 -20 0 -20 6 0 6 9 11 20 11 12 0 21 8 24 23 5 21
26 240 26 265 0 9 -134 12 -568 12 l-569 0 -12 -155z m1059 -120 c0 -8 -7 -15
-15 -15 -26 0 -18 20 13 29 1 1 2 -6 2 -14z m44 6 c3 -5 -1 -11 -9 -15 -9 -3
-15 0 -15 9 0 16 16 20 24 6z m-94 -17 c0 -8 -4 -12 -10 -9 -5 3 -10 10 -10
16 0 5 5 9 10 9 6 0 10 -7 10 -16z m-43 -46 c-3 -8 -6 -5 -6 6 -1 11 2 17 5
13 3 -3 4 -12 1 -19z m43 7 c0 -8 -4 -15 -10 -15 -5 0 -10 7 -10 15 0 8 5 15
10 15 6 0 10 -7 10 -15z m50 5 c0 -5 -9 -10 -20 -10 -11 0 -20 5 -20 10 0 6 9
10 20 10 11 0 20 -4 20 -10z m-50 -40 c0 -5 -4 -10 -10 -10 -5 0 -10 5 -10 10
0 6 5 10 10 10 6 0 10 -4 10 -10z m50 6 c0 -2 -7 -6 -15 -10 -8 -3 -15 -1 -15
4 0 6 7 10 15 10 8 0 15 -2 15 -4z"/>
<path d="M938 2914 c-4 -5 -9 -27 -12 -49 -3 -22 -3 -33 0 -25 3 8 10 25 16
37 10 21 7 55 -4 37z"/>
<path d="M966 2885 c-11 -19 -17 -38 -14 -41 4 -3 10 5 14 18 7 22 7 22 16 3
8 -18 8 -18 4 3 -2 12 0 22 5 22 5 0 9 7 9 15 0 25 -14 17 -34 -20z"/>
<path d="M1022 2903 c-5 -10 -12 -30 -16 -45 -6 -25 -4 -28 16 -27 18 1 19 2
5 6 -18 5 -18 6 -1 24 12 14 13 19 4 19 -9 0 -8 6 5 20 10 11 13 20 7 20 -6 0
-15 -8 -20 -17z"/>
<path d="M1061 2879 c-16 -53 -8 -61 9 -9 7 22 11 42 8 45 -3 3 -10 -13 -17
-36z"/>
<path d="M1100 2892 c0 -12 -4 -22 -10 -22 -5 0 -10 -9 -10 -20 0 -11 4 -20 9
-20 10 0 25 69 17 78 -3 3 -6 -4 -6 -16z"/>
<path d="M1124 2874 c-7 -40 6 -63 24 -41 7 8 14 29 17 48 l5 34 -10 -32 c-15
-48 -34 -55 -26 -9 4 20 5 36 2 36 -3 0 -8 -16 -12 -36z"/>
<path d="M2921 2841 c-4 -3 -13 -85 -20 -181 -6 -96 -14 -196 -17 -222 -6 -48
-6 -48 24 -48 21 0 31 6 35 19 3 13 20 24 47 31 33 9 40 15 35 28 -19 48 -17
119 4 167 11 26 21 53 21 60 0 8 16 32 36 54 43 48 91 62 127 38 84 -60 115
-110 75 -123 -13 -4 -35 -7 -49 -5 -15 1 -42 -4 -60 -12 -19 -8 -56 -17 -82
-21 -26 -4 -45 -11 -42 -15 2 -5 26 -5 51 0 26 5 48 8 49 7 0 -2 6 -15 13 -30
8 -20 19 -28 37 -28 28 0 65 32 65 56 0 13 6 10 25 -11 20 -20 32 -25 50 -21
21 5 26 2 32 -21 4 -16 7 -47 8 -70 0 -24 4 -43 8 -43 5 0 31 10 58 21 36 16
48 26 45 38 -3 9 -19 72 -37 141 -17 69 -37 131 -44 138 -13 14 -477 63 -494
53z m435 -212 c1 -18 -5 -29 -17 -32 -21 -6 -39 11 -32 29 3 8 0 14 -7 14 -6
0 -9 4 -5 9 3 5 18 9 33 9 22 -1 27 -6 28 -29z m-101 -9 c0 -16 -9 -29 -28
-40 -26 -14 -29 -14 -43 4 -20 28 -18 45 9 56 38 16 62 8 62 -20z"/>
<path d="M3651 2793 c-1 -6 -12 -13 -26 -15 -46 -6 -26 -23 30 -26 44 -2 55 0
55 13 0 9 -9 15 -24 15 -13 0 -27 6 -29 13 -4 8 -6 9 -6 0z"/>
<path d="M1790 2720 c0 -5 5 -10 10 -10 6 0 10 5 10 10 0 6 -4 10 -10 10 -5 0
-10 -4 -10 -10z"/>
<path d="M1925 2710 c3 -5 11 -10 16 -10 6 0 7 5 4 10 -3 6 -11 10 -16 10 -6
0 -7 -4 -4 -10z"/>
<path d="M1755 2690 c-3 -5 -1 -10 4 -10 6 0 11 5 11 10 0 6 -2 10 -4 10 -3 0
-8 -4 -11 -10z"/>
<path d="M1725 2570 c3 -5 8 -10 11 -10 2 0 4 5 4 10 0 6 -5 10 -11 10 -5 0
-7 -4 -4 -10z"/>
<path d="M3285 2550 c-31 -8 -27 -11 14 -14 13 0 26 5 28 12 5 13 2 13 -42 2z"/>
<path d="M3560 2500 c0 -5 11 -10 24 -10 32 0 37 -10 21 -39 -12 -23 -13 -23
-24 -5 -12 18 -12 18 -7 0 4 -10 11 -38 17 -62 l11 -44 149 0 c82 0 149 3 149
6 0 4 -5 23 -11 43 l-11 36 -109 -3 c-96 -3 -109 -1 -109 13 0 33 -40 75 -71
75 -16 0 -29 -4 -29 -10z m80 -72 c0 -5 -7 -8 -15 -8 -15 0 -20 21 -8 33 7 7
23 -11 23 -25z"/>
<path d="M1702 2488 c6 -16 33 -22 56 -13 15 6 15 8 -3 15 -31 13 -57 12 -53
-2z"/>
<path d="M3480 2430 c-12 -7 -12 -12 -2 -22 6 -6 12 -22 12 -35 0 -28 26 -31
35 -4 8 25 -4 71 -19 71 -6 0 -18 -5 -26 -10z"/>
<path d="M3415 2407 c-47 -18 -61 -47 -22 -47 14 0 28 11 39 30 9 17 16 30 15
29 -1 -1 -15 -6 -32 -12z"/>
<path d="M3683 2313 c43 -2 110 -2 150 0 40 1 5 3 -78 3 -82 0 -115 -2 -72 -3z"/>
<path d="M1792 2220 c-7 -11 -8 -20 -3 -20 9 0 24 30 18 36 -1 2 -8 -6 -15
-16z"/>
<path d="M1750 2209 c0 -5 5 -7 10 -4 6 3 10 8 10 11 0 2 -4 4 -10 4 -5 0 -10
-5 -10 -11z"/>
<path d="M3334 2094 c-13 -19 -14 -28 -5 -37 17 -17 13 -30 -6 -22 -14 5 -15
3 -6 -6 19 -19 34 0 27 36 -4 21 -1 35 7 40 9 6 10 3 6 -9 -4 -10 -3 -15 3
-11 13 8 13 35 0 35 -5 0 -17 -11 -26 -26z"/>
<path d="M3277 2083 c-8 -16 -18 -39 -22 -52 -6 -21 -5 -22 8 -10 8 8 13 17
10 21 -5 9 17 52 24 45 2 -3 0 -14 -5 -24 -5 -10 -6 -27 -1 -38 7 -19 8 -19 8
1 1 12 4 36 7 53 8 39 -10 41 -29 4z"/>
<path d="M3234 2092 c-11 -7 -34 -66 -34 -88 0 -8 6 -11 16 -7 13 5 13 7 2 15
-10 7 -9 11 5 22 12 10 14 15 6 18 -8 3 -4 12 11 26 22 21 18 31 -6 14z"/>
<path d="M3162 2063 c-6 -10 -12 -31 -14 -48 -3 -16 -3 -25 -1 -18 2 6 15 19
29 27 26 18 33 56 9 56 -8 0 -18 -8 -23 -17z m22 -17 c-6 -16 -24 -23 -24 -8
0 10 22 33 27 28 2 -2 1 -11 -3 -20z"/>
<path d="M3334 2002 c-17 -11 -24 -52 -8 -45 8 3 11 9 8 14 -3 6 0 16 6 24 14
16 11 19 -6 7z"/>
<path d="M3191 1963 c-1 -6 -4 -20 -7 -30 -5 -17 -5 -17 6 0 6 10 9 23 6 30
-3 9 -5 9 -5 0z"/>
<path d="M3146 1927 c3 -10 9 -15 12 -12 3 3 0 11 -7 18 -10 9 -11 8 -5 -6z"/>
<path d="M3211 1928 c-1 -21 15 -32 25 -17 4 7 3 9 -4 5 -6 -3 -13 2 -15 11
-4 16 -5 16 -6 1z"/>
<path d="M3265 1930 c-3 -5 -1 -10 4 -10 6 0 11 5 11 10 0 6 -2 10 -4 10 -3 0
-8 -4 -11 -10z"/>
<path d="M3308 1933 c7 -3 16 -2 19 1 4 3 -2 6 -13 5 -11 0 -14 -3 -6 -6z"/>
<path d="M3178 1903 c7 -3 16 -2 19 1 4 3 -2 6 -13 5 -11 0 -14 -3 -6 -6z"/>
<path d="M3998 1903 c23 -2 59 -2 80 0 20 2 1 4 -43 4 -44 0 -61 -2 -37 -4z"/>
<path d="M768 1773 c12 -2 30 -2 40 0 9 3 -1 5 -23 4 -22 0 -30 -2 -17 -4z"/>
<path d="M3998 1773 c23 -2 59 -2 80 0 20 2 1 4 -43 4 -44 0 -61 -2 -37 -4z"/>
<path d="M1069 1627 c-54 -29 -99 -90 -106 -145 -5 -38 -4 -42 16 -42 14 0 25
-10 34 -33 34 -81 119 -117 236 -102 31 4 65 6 76 6 181 -14 210 -12 244 11
39 26 68 64 73 93 3 19 -3 20 -92 22 -52 1 -114 2 -136 2 l-41 1 -6 46 c-14
129 -176 205 -298 141z m150 -82 c55 -28 64 -110 18 -152 -32 -29 -71 -36
-111 -19 -42 17 -56 42 -56 94 0 73 79 114 149 77z"/>
<path d="M1183 1514 c-3 -8 -1 -20 6 -27 14 -14 47 15 37 32 -10 16 -36 13
-43 -5z"/>
<path d="M1094 1509 c-10 -17 23 -46 37 -32 7 7 9 19 6 27 -7 18 -33 21 -43 5z"/>
<path d="M1156 1473 c-11 -11 -6 -23 9 -23 8 0 15 4 15 9 0 13 -16 22 -24 14z"/>
<path d="M1191 1436 c-17 -20 13 -43 34 -26 12 10 13 16 4 26 -6 8 -15 14 -19
14 -4 0 -13 -6 -19 -14z"/>
<path d="M1104 1425 c-4 -9 -2 -21 4 -27 15 -15 44 -1 40 19 -4 23 -36 29 -44
8z"/>
<path d="M2965 1633 c-44 -23 -74 -53 -96 -95 -20 -39 -26 -98 -9 -98 5 0 19
-18 30 -39 11 -22 36 -52 56 -67 30 -23 48 -28 113 -32 59 -3 86 0 113 12 31
15 37 15 64 1 41 -21 175 -20 221 1 36 18 83 77 83 105 0 15 -15 17 -122 17
-68 0 -131 1 -140 1 -13 1 -18 9 -18 31 0 37 -29 97 -62 127 -55 51 -170 69
-233 36z m142 -98 c32 -32 35 -39 30 -78 -8 -57 -43 -87 -102 -87 -36 0 -47 5
-69 31 -44 52 -29 136 28 159 45 18 77 11 113 -25z"/>
<path d="M2984 1525 c-4 -9 -2 -21 4 -27 15 -15 44 -1 40 19 -4 23 -36 29 -44
8z"/>
<path d="M3064 1509 c-8 -14 21 -43 35 -35 19 12 13 46 -8 46 -11 0 -23 -5
-27 -11z"/>
<path d="M3027 1474 c-8 -8 1 -24 14 -24 5 0 9 7 9 15 0 15 -12 20 -23 9z"/>
<path d="M2970 1445 c-10 -11 -10 -19 -2 -27 15 -15 44 -2 40 19 -4 23 -22 27
-38 8z"/>
<path d="M3051 1426 c-9 -10 -8 -16 4 -26 19 -15 47 3 38 26 -7 18 -27 18 -42
0z"/>
<path d="M4011 1548 c0 -28 2 -30 9 -13 7 17 9 17 9 3 1 -10 5 -18 10 -18 11
0 9 19 -3 39 -6 9 -5 12 5 9 7 -2 16 -15 20 -29 6 -21 7 -21 8 9 1 29 -2 32
-29 32 -27 0 -30 -3 -29 -32z"/>
<path d="M4101 1555 c-1 -24 3 -31 19 -32 16 -1 20 4 20 28 0 34 -20 40 -21 7
-1 -22 -1 -22 -9 2 -8 24 -8 24 -9 -5z"/>
</g>
</svg>
